<svg xmlns="http://www.w3.org/2000/svg" xmlns:xlink="http://www.w3.org/1999/xlink" width="375" height="301" viewBox="0 0 375 301"><defs><clipPath id="a"><rect width="375" height="301" transform="translate(0 993)" fill="#fff"/></clipPath><clipPath id="b"><rect width="818.02" height="1017.537" transform="translate(0 0)" fill="none"/></clipPath></defs><g transform="translate(0 -993)" clip-path="url(#a)"><g transform="translate(-90 -280)"><g transform="matrix(0.035, -0.999, 0.999, 0.035, -923.575, 2049.383)"><g transform="translate(-105.377 901.317)" clip-path="url(#b)"><path d="M2829.149,448.705c-108.529-54.939-138.088-108.688-179-183.08-10.187-18.522-20.719-37.674-33.591-59.081-61.594-102.441-229.031-167.749-230.715-168.4L2400.489,0c7.407,2.842,182.2,70.919,251.09,185.489,13.278,22.082,24.486,42.464,34.376,60.447,40.152,73.009,64.387,117.078,161.65,166.314Z" transform="translate(-1966.023 -159.376)" fill="#f9a12f"/><path d="M2754.736,655.714c-108.529-54.939-138.089-108.689-179-183.081-10.186-18.522-20.719-37.674-33.591-59.081-61.594-102.441-229.031-167.749-230.715-168.4l14.645-38.148c7.407,2.842,182.2,70.919,251.09,185.489,13.277,22.082,24.486,42.464,34.376,60.446,40.151,73.01,64.387,117.078,161.651,166.314Z" transform="translate(-1904.703 -329.959)" fill="#ed6b1f"/><path d="M2680.321,862.723c-108.529-54.939-138.088-108.688-179-183.08-10.186-18.522-20.719-37.674-33.591-59.081-61.595-102.441-229.031-167.749-230.715-168.4l14.645-38.148c7.407,2.842,182.2,70.919,251.09,185.489,13.277,22.082,24.486,42.464,34.376,60.446,40.151,73.01,64.387,117.078,161.65,166.314Z" transform="translate(-1843.383 -500.542)" fill="#ffa266"/><path d="M2605.907,1069.733c-108.529-54.938-138.089-108.688-179-183.08-10.187-18.522-20.719-37.674-33.59-59.081-61.6-102.441-229.032-167.749-230.716-168.4l14.646-38.148c7.407,2.842,182.2,70.919,251.09,185.489,13.277,22.082,24.486,42.464,34.375,60.447,40.152,73.009,64.388,117.077,161.651,166.313Z" transform="translate(-1782.063 -671.126)" fill="#fff"/></g></g><g transform="matrix(0.035, -0.999, 0.999, 0.035, -650.422, 1920.383)"><g transform="translate(-105.377 901.317)" clip-path="url(#b)"><path d="M2829.149,448.705c-108.529-54.939-138.088-108.688-179-183.08-10.187-18.522-20.719-37.674-33.591-59.081-61.594-102.441-229.031-167.749-230.715-168.4L2400.489,0c7.407,2.842,182.2,70.919,251.09,185.489,13.278,22.082,24.486,42.464,34.376,60.447,40.152,73.009,64.387,117.078,161.65,166.314Z" transform="translate(-1966.023 -159.376)" fill="#f9a12f"/><path d="M2754.736,655.714c-108.529-54.939-138.089-108.689-179-183.081-10.186-18.522-20.719-37.674-33.591-59.081-61.594-102.441-229.031-167.749-230.715-168.4l14.645-38.148c7.407,2.842,182.2,70.919,251.09,185.489,13.277,22.082,24.486,42.464,34.376,60.446,40.151,73.01,64.387,117.078,161.651,166.314Z" transform="translate(-1904.703 -329.959)" fill="#ed6b1f"/><path d="M2680.321,862.723c-108.529-54.939-138.088-108.688-179-183.08-10.186-18.522-20.719-37.674-33.591-59.081-61.595-102.441-229.031-167.749-230.715-168.4l14.645-38.148c7.407,2.842,182.2,70.919,251.09,185.489,13.277,22.082,24.486,42.464,34.376,60.446,40.151,73.01,64.387,117.078,161.65,166.314Z" transform="translate(-1843.383 -500.542)" fill="#ffa266"/><path d="M2605.907,1069.733c-108.529-54.938-138.089-108.688-179-183.08-10.187-18.522-20.719-37.674-33.59-59.081-61.6-102.441-229.032-167.749-230.716-168.4l14.646-38.148c7.407,2.842,182.2,70.919,251.09,185.489,13.277,22.082,24.486,42.464,34.375,60.447,40.152,73.009,64.388,117.077,161.651,166.313Z" transform="translate(-1782.063 -671.126)" fill="#fff"/></g></g></g></g></svg>